<?xml version="1.0" encoding="utf-8"?>
<!-- Generator: Adobe Illustrator 23.1.1, SVG Export Plug-In . SVG Version: 6.00 Build 0)  -->
<svg version="1.1" id="Layer_1" xmlns="http://www.w3.org/2000/svg" xmlns:xlink="http://www.w3.org/1999/xlink" x="0px" y="0px"
	 viewBox="0 0 212 28" style="enable-background:new 0 0 212 28;" xml:space="preserve">
<style type="text/css">
	.st0{fill:#2e303b;}
	.st1{fill:#5F2994;}
</style>
<g>
	<g>
		<g>
			<g>
				<g>
					<path class="st0" d="M55.91,19.59v-9.52h1.4v9.49c0,3.1,1.61,5.24,4.59,5.24c2.96,0,4.55-2.15,4.55-5.24v-9.49h1.4v9.52
						c0,3.91-2.1,6.55-5.95,6.55C58.01,26.14,55.91,23.5,55.91,19.59z"/>
					<path class="st0" d="M87.04,10.07v15.82h-1.33L75.17,12.17v13.72h-1.36V10.07h1.42L85.69,23.7V10.07H87.04z"/>
					<path class="st0" d="M97.78,25.89h-4.77V10.07h4.77c4.36,0,7.82,3.41,7.82,7.91S102.14,25.89,97.78,25.89z M97.74,11.38h-3.32
						v13.2h3.32c3.66,0,6.42-2.87,6.42-6.6S101.4,11.38,97.74,11.38z"/>
					<path class="st0" d="M110.44,10.07h8.46v1.29h-7.06v5.65h6.51v1.29h-6.51v6.31h7.1v1.29h-8.5V10.07z"/>
					<path class="st0" d="M126.31,25.89h-1.4V10.07h4.23c2.94,0,5,1.58,5,4.36c0,2.51-1.76,4.11-4.27,4.38l5.22,7.07h-1.67
						l-5.16-7.05h-1.94V25.89z M126.31,17.55h2.8c2.13,0,3.6-1.18,3.6-3.12c0-1.94-1.47-3.05-3.6-3.05h-2.8V17.55z"/>
					<path class="st0" d="M140.15,21.65c0.54,1.85,1.88,3.14,3.82,3.16c1.9,0.02,3.44-1.13,3.46-3.03c0-1.4-0.86-2.33-2.53-2.98
						l-2.15-0.84c-2.19-0.86-3.37-2.21-3.35-4.2c0.02-2.42,1.94-3.98,4.43-3.96c2.22,0.02,3.89,1.4,4.55,3.48l-1.29,0.5
						c-0.5-1.54-1.63-2.64-3.3-2.64c-1.61,0-2.96,0.95-2.96,2.64c0,1.29,0.86,2.19,2.51,2.87l2.1,0.86c2.26,0.93,3.44,2.22,3.44,4.2
						c-0.02,2.76-2.19,4.45-4.93,4.43c-2.58-0.02-4.48-1.58-5.16-4.05L140.15,21.65z"/>
					<path class="st0" d="M152.03,10.07h11.04v1.33h-4.79v14.49h-1.42V11.41h-4.82V10.07z"/>
					<path class="st0" d="M173.17,26.14c-4.43,0-8.07-3.66-8.07-8.18c0-4.5,3.64-8.16,8.07-8.16c4.43,0,8.07,3.66,8.07,8.16
						C181.25,22.48,177.61,26.14,173.17,26.14z M173.17,11.13c-3.66,0-6.63,3.07-6.63,6.83c0,3.77,2.96,6.85,6.63,6.85
						s6.63-3.07,6.63-6.85C179.8,14.21,176.84,11.13,173.17,11.13z"/>
					<path class="st0" d="M186.97,25.89h-1.4V10.07h4.23c2.94,0,5,1.58,5,4.36c0,2.51-1.76,4.11-4.27,4.38l5.22,7.07h-1.67
						l-5.16-7.05h-1.94V25.89z M186.97,17.55h2.8c2.13,0,3.6-1.18,3.6-3.12c0-1.94-1.47-3.05-3.6-3.05h-2.8V17.55z"/>
					<path class="st0" d="M197.63,10.07h1.63l4.98,7.39l4.95-7.39h1.61l-5.88,8.68v7.14h-1.4v-7.14L197.63,10.07z"/>
				</g>
			</g>
		</g>
		<g>
			<g>
				<g>
					<g>
						<polygon class="st1" points="0.21,26.14 21.39,26.14 31.98,8.76 						"/>
						<polygon class="st1" points="33.17,9.35 22.94,26.14 33.17,26.14 						"/>
					</g>
					<g>
						<polygon class="st1" points="45.5,-0.14 24.32,-0.14 13.73,17.24 						"/>
						<polygon class="st1" points="22.77,-0.14 12.54,-0.14 12.54,16.65 						"/>
					</g>
				</g>
			</g>
		</g>
	</g>
</g>
</svg>
